<?xml version="1.0" standalone="no"?>
<!DOCTYPE svg PUBLIC "-//W3C//DTD SVG 20010904//EN"
 "http://www.w3.org/TR/2001/REC-SVG-20010904/DTD/svg10.dtd">
<svg version="1.0" xmlns="http://www.w3.org/2000/svg"
 width="300.000000pt" height="300.000000pt" viewBox="0 0 250.000000 250.000000"
 preserveAspectRatio="xMidYMid meet">
<metadata>
Created by potrace 1.10, written by Peter Selinger 2001-2011
</metadata>
<g transform="translate(0.000000,300.000000) scale(0.100000,-0.100000)"
fill="#000000" stroke="none">
<path d="M1370 2275 c-223 -48 -365 -146 -436 -302 -50 -107 -126 -304 -121
-309 7 -7 33 37 46 79 7 20 16 37 21 37 4 0 8 -55 9 -122 1 -123 15 -196 47
-248 14 -24 15 -24 8 -2 -28 105 -39 316 -19 397 38 161 166 329 302 399 63
32 237 10 343 -44 342 -174 547 -541 507 -905 -8 -72 -37 -162 -72 -221 -57
-97 -193 -212 -279 -235 -72 -20 -196 5 -311 61 -194 94 -345 256 -434 465
-12 28 -34 58 -49 69 -44 30 -100 106 -128 176 -31 74 -38 183 -15 238 8 18
11 35 8 38 -3 3 -20 -39 -38 -93 -31 -93 -33 -106 -34 -243 0 -123 3 -156 23
-217 83 -264 271 -460 522 -544 231 -78 514 -23 684 132 68 62 93 99 129 189
21 54 78 259 77 279 -1 15 -30 -35 -30 -51 0 -10 -4 -18 -10 -18 -5 0 -10 17
-10 38 -1 69 -11 157 -22 184 -6 16 -8 38 -4 50 3 13 8 79 10 148 4 109 4 114
-3 37 -4 -48 -11 -90 -14 -93 -3 -3 -21 25 -40 64 -50 100 -134 228 -163 247
-13 9 -22 20 -19 25 5 7 -13 23 -119 111 -98 81 -232 137 -337 141 -27 1 -36
5 -29 12 5 5 61 12 125 14 131 5 163 -3 310 -73 99 -48 125 -66 200 -140 27
-27 53 -50 57 -50 9 0 91 -121 102 -150 7 -18 5 -18 -17 3 -41 39 -39 24 5
-30 108 -133 140 -325 88 -531 -20 -78 -4 -65 18 15 28 101 24 322 -7 417 -72
216 -216 384 -415 485 -50 25 -118 53 -151 61 -76 21 -243 26 -315 10z m-585
-737 c15 -33 35 -68 45 -78 41 -40 113 -136 123 -162 6 -18 35 -71 62 -117
108 -180 316 -350 483 -395 118 -33 -36 -48 -160 -17 -83 21 -222 84 -272 123
-47 36 -119 109 -156 157 -39 51 -110 186 -110 210 0 9 -4 21 -8 26 -11 13
-30 96 -38 166 -5 51 1 119 12 119 2 0 10 -15 19 -32z"/>
<path d="M1242 1971 c-73 -25 -122 -67 -157 -136 -27 -52 -30 -68 -29 -144 0
-102 23 -160 86 -217 111 -100 262 -93 368 17 l47 49 72 0 c39 0 71 -4 71 -9
0 -4 -30 -52 -67 -104 -38 -53 -100 -143 -140 -199 -39 -57 -86 -122 -103
-145 l-32 -43 216 0 216 0 50 101 c27 55 50 105 50 110 0 23 -20 5 -41 -38
-32 -65 -96 -129 -144 -142 -22 -6 -84 -11 -138 -11 l-97 0 57 83 c31 45 106
151 166 236 60 85 111 159 113 165 3 7 -36 12 -118 14 -67 1 -124 4 -126 7 -2
2 1 18 7 36 6 18 11 62 11 100 0 139 -81 245 -212 277 -60 15 -62 15 -126 -7z
m157 -26 c72 -37 109 -177 87 -332 l-8 -53 -59 0 c-33 0 -59 -4 -59 -10 0 -5
25 -10 56 -10 l55 0 -18 -31 c-27 -46 -57 -70 -99 -79 -59 -14 -114 3 -150 45
-97 110 -79 400 29 465 39 24 125 27 166 5z"/>
</g>
</svg>
